<?xml version="1.0" encoding="UTF-8" standalone="no"?>
<!DOCTYPE svg PUBLIC "-//W3C//DTD SVG 1.1//EN" "http://www.w3.org/Graphics/SVG/1.1/DTD/svg11.dtd">
<svg width="100%" height="100%" viewBox="0 0 66 90" version="1.1" xmlns="http://www.w3.org/2000/svg" xmlns:xlink="http://www.w3.org/1999/xlink" xml:space="preserve" xmlns:serif="http://www.serif.com/" style="fill-rule:evenodd;clip-rule:evenodd;stroke-linejoin:round;stroke-miterlimit:2;">
    <g transform="matrix(1,0,0,1,-17.1,-5)">
        <path d="M50,5C31.8,5 17.1,19.7 17.1,37.9C17.1,63.4 50,95 50,95C50,95 82.9,63.3 82.9,37.9C82.9,19.7 68.2,5 50,5ZM50,53C41.7,53 35,46.3 35,38C35,29.7 41.7,23 50,23C58.3,23 65,29.7 65,38C65,46.3 58.3,53 50,53Z" style="fill:rgb(190,60,60);fill-rule:nonzero;"/>
    </g>
</svg>
